<svg width="14" height="17" viewBox="0 0 14 17" fill="none" xmlns="http://www.w3.org/2000/svg">
<path d="M4.27187 0.684375C4.40937 0.275 4.79063 0 5.22188 0H8.78125C9.2125 0 9.59375 0.275 9.73125 0.684375L10 1.5H13C13.5531 1.5 14 1.94687 14 2.5C14 3.05312 13.5531 3.5 13 3.5H1C0.446875 3.5 0 3.05312 0 2.5C0 1.94687 0.446875 1.5 1 1.5H4L4.27187 0.684375ZM1 5H13V14.5C13 15.6031 12.1031 16.5 11 16.5H3C1.89688 16.5 1 15.6031 1 14.5V5ZM3.75 7C3.33437 7 3 7.33437 3 7.75V13.75C3 14.1656 3.33437 14.5 3.75 14.5C4.16563 14.5 4.5 14.1656 4.5 13.75V7.75C4.5 7.33437 4.16563 7 3.75 7ZM7 7C6.58437 7 6.25 7.33437 6.25 7.75V13.75C6.25 14.1656 6.58437 14.5 7 14.5C7.41563 14.5 7.75 14.1656 7.75 13.75V7.75C7.75 7.33437 7.41563 7 7 7ZM10.25 7C9.83438 7 9.5 7.33437 9.5 7.75V13.75C9.5 14.1656 9.83438 14.5 10.25 14.5C10.6656 14.5 11 14.1656 11 13.75V7.75C11 7.33437 10.6656 7 10.25 7Z" fill="#BD4538"/>
</svg>
